<mxfile host="Electron" agent="Mozilla/5.0 (Macintosh; Intel Mac OS X 10_15_7) AppleWebKit/537.36 (KHTML, like Gecko) draw.io/24.7.8 Chrome/128.0.6613.36 Electron/32.0.1 Safari/537.36" version="24.7.8">
  <diagram id="C5RBs43oDa-KdzZeNtuy" name="Page-1">
    <mxGraphModel dx="867" dy="539" grid="1" gridSize="10" guides="1" tooltips="1" connect="1" arrows="1" fold="1" page="1" pageScale="1" pageWidth="827" pageHeight="1169" math="0" shadow="0">
      <root>
        <mxCell id="WIyWlLk6GJQsqaUBKTNV-0" />
        <mxCell id="WIyWlLk6GJQsqaUBKTNV-1" parent="WIyWlLk6GJQsqaUBKTNV-0" />
        <mxCell id="WIyWlLk6GJQsqaUBKTNV-2" value="" style="rounded=0;html=1;jettySize=auto;orthogonalLoop=1;fontSize=11;endArrow=block;endFill=0;endSize=8;strokeWidth=1;shadow=0;labelBackgroundColor=none;edgeStyle=orthogonalEdgeStyle;" parent="WIyWlLk6GJQsqaUBKTNV-1" source="WIyWlLk6GJQsqaUBKTNV-3" target="WIyWlLk6GJQsqaUBKTNV-6" edge="1">
          <mxGeometry relative="1" as="geometry" />
        </mxCell>
        <mxCell id="WIyWlLk6GJQsqaUBKTNV-3" value="Carga de operaciones por json" style="rounded=1;whiteSpace=wrap;html=1;fontSize=12;glass=0;strokeWidth=1;shadow=0;fillColor=#647687;strokeColor=#314354;fontColor=#ffffff;" parent="WIyWlLk6GJQsqaUBKTNV-1" vertex="1">
          <mxGeometry x="220" y="90" width="120" height="40" as="geometry" />
        </mxCell>
        <mxCell id="WIyWlLk6GJQsqaUBKTNV-4" value="Si" style="rounded=0;html=1;jettySize=auto;orthogonalLoop=1;fontSize=11;endArrow=block;endFill=0;endSize=8;strokeWidth=1;shadow=0;labelBackgroundColor=none;edgeStyle=orthogonalEdgeStyle;entryX=0.5;entryY=0;entryDx=0;entryDy=0;" parent="WIyWlLk6GJQsqaUBKTNV-1" source="WIyWlLk6GJQsqaUBKTNV-6" target="K89lKKA3gyO2oekOYoo0-3" edge="1">
          <mxGeometry y="20" relative="1" as="geometry">
            <mxPoint as="offset" />
            <mxPoint x="414" y="300" as="targetPoint" />
            <Array as="points">
              <mxPoint x="280" y="140" />
            </Array>
          </mxGeometry>
        </mxCell>
        <mxCell id="WIyWlLk6GJQsqaUBKTNV-5" value="" style="edgeStyle=orthogonalEdgeStyle;rounded=0;html=1;jettySize=auto;orthogonalLoop=1;fontSize=11;endArrow=block;endFill=0;endSize=8;strokeWidth=1;shadow=0;labelBackgroundColor=none;entryX=1;entryY=0.5;entryDx=0;entryDy=0;exitX=1;exitY=0.5;exitDx=0;exitDy=0;" parent="WIyWlLk6GJQsqaUBKTNV-1" source="WIyWlLk6GJQsqaUBKTNV-6" target="K89lKKA3gyO2oekOYoo0-2" edge="1">
          <mxGeometry y="10" relative="1" as="geometry">
            <mxPoint as="offset" />
            <mxPoint x="596" y="110" as="sourcePoint" />
            <mxPoint x="480" y="890" as="targetPoint" />
            <Array as="points">
              <mxPoint x="596" y="110" />
              <mxPoint x="596" y="700" />
            </Array>
          </mxGeometry>
        </mxCell>
        <mxCell id="K89lKKA3gyO2oekOYoo0-16" value="No" style="edgeLabel;html=1;align=center;verticalAlign=middle;resizable=0;points=[];" vertex="1" connectable="0" parent="WIyWlLk6GJQsqaUBKTNV-5">
          <mxGeometry x="-0.0185" y="1" relative="1" as="geometry">
            <mxPoint as="offset" />
          </mxGeometry>
        </mxCell>
        <mxCell id="WIyWlLk6GJQsqaUBKTNV-6" value="&lt;font style=&quot;font-size: 12px;&quot;&gt;¿Ocurrió un error o cantidad de ops insuficiente?&lt;/font&gt;" style="rhombus;whiteSpace=wrap;html=1;shadow=0;fontFamily=Helvetica;fontSize=12;align=center;strokeWidth=1;spacing=6;spacingTop=-4;fillColor=#647687;strokeColor=#314354;fontColor=#ffffff;" parent="WIyWlLk6GJQsqaUBKTNV-1" vertex="1">
          <mxGeometry x="450" y="70" width="100" height="80" as="geometry" />
        </mxCell>
        <mxCell id="K89lKKA3gyO2oekOYoo0-0" value="inicio" style="ellipse;whiteSpace=wrap;html=1;aspect=fixed;fillColor=#60a917;fontColor=#ffffff;strokeColor=#2D7600;" vertex="1" parent="WIyWlLk6GJQsqaUBKTNV-1">
          <mxGeometry x="394" y="10" width="40" height="40" as="geometry" />
        </mxCell>
        <mxCell id="K89lKKA3gyO2oekOYoo0-2" value="Recepcion de turnos" style="ellipse;whiteSpace=wrap;html=1;aspect=fixed;fillColor=#a20025;fontColor=#ffffff;strokeColor=#6F0000;" vertex="1" parent="WIyWlLk6GJQsqaUBKTNV-1">
          <mxGeometry x="390" y="680" width="40" height="40" as="geometry" />
        </mxCell>
        <mxCell id="K89lKKA3gyO2oekOYoo0-3" value="Inicio carga manual" style="rounded=1;whiteSpace=wrap;html=1;fontSize=12;glass=0;strokeWidth=1;shadow=0;fillColor=#647687;strokeColor=#314354;fontColor=#ffffff;" vertex="1" parent="WIyWlLk6GJQsqaUBKTNV-1">
          <mxGeometry x="220" y="180" width="120" height="40" as="geometry" />
        </mxCell>
        <mxCell id="K89lKKA3gyO2oekOYoo0-4" value="Ingreso código de operación" style="rounded=1;whiteSpace=wrap;html=1;fontSize=12;glass=0;strokeWidth=1;shadow=0;fillColor=#647687;strokeColor=#314354;fontColor=#ffffff;" vertex="1" parent="WIyWlLk6GJQsqaUBKTNV-1">
          <mxGeometry x="430" y="220" width="120" height="40" as="geometry" />
        </mxCell>
        <mxCell id="K89lKKA3gyO2oekOYoo0-7" value="" style="rounded=0;html=1;jettySize=auto;orthogonalLoop=1;fontSize=11;endArrow=block;endFill=0;endSize=8;strokeWidth=1;shadow=0;labelBackgroundColor=none;edgeStyle=orthogonalEdgeStyle;exitX=1;exitY=0.5;exitDx=0;exitDy=0;entryX=0.5;entryY=0;entryDx=0;entryDy=0;" edge="1" parent="WIyWlLk6GJQsqaUBKTNV-1" source="K89lKKA3gyO2oekOYoo0-3" target="K89lKKA3gyO2oekOYoo0-4">
          <mxGeometry relative="1" as="geometry">
            <mxPoint x="424" y="130" as="sourcePoint" />
            <mxPoint x="424" y="160" as="targetPoint" />
          </mxGeometry>
        </mxCell>
        <mxCell id="K89lKKA3gyO2oekOYoo0-8" value="&lt;font style=&quot;font-size: 12px;&quot;&gt;¿Código no repetido y valido entre 100 y 999?&lt;/font&gt;" style="rhombus;whiteSpace=wrap;html=1;shadow=0;fontFamily=Helvetica;fontSize=12;align=center;strokeWidth=1;spacing=6;spacingTop=-4;fillColor=#647687;strokeColor=#314354;fontColor=#ffffff;" vertex="1" parent="WIyWlLk6GJQsqaUBKTNV-1">
          <mxGeometry x="210" y="290" width="100" height="80" as="geometry" />
        </mxCell>
        <mxCell id="K89lKKA3gyO2oekOYoo0-9" value="" style="rounded=0;html=1;jettySize=auto;orthogonalLoop=1;fontSize=11;endArrow=block;endFill=0;endSize=8;strokeWidth=1;shadow=0;labelBackgroundColor=none;edgeStyle=orthogonalEdgeStyle;exitX=0.5;exitY=1;exitDx=0;exitDy=0;entryX=0.5;entryY=0;entryDx=0;entryDy=0;" edge="1" parent="WIyWlLk6GJQsqaUBKTNV-1" source="K89lKKA3gyO2oekOYoo0-4" target="K89lKKA3gyO2oekOYoo0-8">
          <mxGeometry relative="1" as="geometry">
            <mxPoint x="424" y="320" as="sourcePoint" />
            <mxPoint x="424" y="360" as="targetPoint" />
            <Array as="points">
              <mxPoint x="490" y="270" />
              <mxPoint x="260" y="270" />
            </Array>
          </mxGeometry>
        </mxCell>
        <mxCell id="K89lKKA3gyO2oekOYoo0-10" value="" style="rounded=0;html=1;jettySize=auto;orthogonalLoop=1;fontSize=11;endArrow=block;endFill=0;endSize=8;strokeWidth=1;shadow=0;labelBackgroundColor=none;edgeStyle=orthogonalEdgeStyle;exitX=0.5;exitY=1;exitDx=0;exitDy=0;entryX=0.5;entryY=0;entryDx=0;entryDy=0;" edge="1" parent="WIyWlLk6GJQsqaUBKTNV-1" source="K89lKKA3gyO2oekOYoo0-0" target="WIyWlLk6GJQsqaUBKTNV-3">
          <mxGeometry relative="1" as="geometry">
            <mxPoint x="424" y="320" as="sourcePoint" />
            <mxPoint x="424" y="360" as="targetPoint" />
          </mxGeometry>
        </mxCell>
        <mxCell id="K89lKKA3gyO2oekOYoo0-12" value="No" style="rounded=0;html=1;jettySize=auto;orthogonalLoop=1;fontSize=11;endArrow=block;endFill=0;endSize=8;strokeWidth=1;shadow=0;labelBackgroundColor=none;edgeStyle=orthogonalEdgeStyle;exitX=1;exitY=0.5;exitDx=0;exitDy=0;entryX=0.75;entryY=1;entryDx=0;entryDy=0;" edge="1" parent="WIyWlLk6GJQsqaUBKTNV-1" source="K89lKKA3gyO2oekOYoo0-8" target="K89lKKA3gyO2oekOYoo0-4">
          <mxGeometry relative="1" as="geometry">
            <mxPoint x="320" y="460" as="sourcePoint" />
            <mxPoint x="370" y="260" as="targetPoint" />
            <Array as="points">
              <mxPoint x="520" y="330" />
            </Array>
          </mxGeometry>
        </mxCell>
        <mxCell id="K89lKKA3gyO2oekOYoo0-13" value="Ingreso de nombre de operacion" style="rounded=1;whiteSpace=wrap;html=1;fontSize=12;glass=0;strokeWidth=1;shadow=0;fillColor=#647687;strokeColor=#314354;fontColor=#ffffff;" vertex="1" parent="WIyWlLk6GJQsqaUBKTNV-1">
          <mxGeometry x="420" y="390" width="120" height="40" as="geometry" />
        </mxCell>
        <mxCell id="K89lKKA3gyO2oekOYoo0-17" value="¿Nombre de operación ya ingresado?" style="rhombus;whiteSpace=wrap;html=1;shadow=0;fontFamily=Helvetica;fontSize=12;align=center;strokeWidth=1;spacing=6;spacingTop=-4;fillColor=#647687;strokeColor=#314354;fontColor=#ffffff;" vertex="1" parent="WIyWlLk6GJQsqaUBKTNV-1">
          <mxGeometry x="220" y="440" width="100" height="80" as="geometry" />
        </mxCell>
        <mxCell id="K89lKKA3gyO2oekOYoo0-19" value="" style="rounded=0;html=1;jettySize=auto;orthogonalLoop=1;fontSize=11;endArrow=block;endFill=0;endSize=8;strokeWidth=1;shadow=0;labelBackgroundColor=none;edgeStyle=orthogonalEdgeStyle;exitX=0;exitY=0.5;exitDx=0;exitDy=0;entryX=0.5;entryY=0;entryDx=0;entryDy=0;" edge="1" parent="WIyWlLk6GJQsqaUBKTNV-1" source="K89lKKA3gyO2oekOYoo0-13" target="K89lKKA3gyO2oekOYoo0-17">
          <mxGeometry relative="1" as="geometry">
            <mxPoint x="433.51" y="600" as="sourcePoint" />
            <mxPoint x="433.51" y="640" as="targetPoint" />
            <Array as="points">
              <mxPoint x="270" y="410" />
            </Array>
          </mxGeometry>
        </mxCell>
        <mxCell id="K89lKKA3gyO2oekOYoo0-20" value="Si" style="rounded=0;html=1;jettySize=auto;orthogonalLoop=1;fontSize=11;endArrow=block;endFill=0;endSize=8;strokeWidth=1;shadow=0;labelBackgroundColor=none;edgeStyle=orthogonalEdgeStyle;exitX=1;exitY=1;exitDx=0;exitDy=0;entryX=0.5;entryY=0;entryDx=0;entryDy=0;" edge="1" parent="WIyWlLk6GJQsqaUBKTNV-1" source="K89lKKA3gyO2oekOYoo0-8" target="K89lKKA3gyO2oekOYoo0-13">
          <mxGeometry relative="1" as="geometry">
            <mxPoint x="125" y="520" as="sourcePoint" />
            <mxPoint x="330" y="550" as="targetPoint" />
            <Array as="points">
              <mxPoint x="285" y="360" />
              <mxPoint x="480" y="360" />
            </Array>
          </mxGeometry>
        </mxCell>
        <mxCell id="K89lKKA3gyO2oekOYoo0-22" value="Si" style="rounded=0;html=1;jettySize=auto;orthogonalLoop=1;fontSize=11;endArrow=block;endFill=0;endSize=8;strokeWidth=1;shadow=0;labelBackgroundColor=none;edgeStyle=orthogonalEdgeStyle;exitX=1;exitY=0.5;exitDx=0;exitDy=0;entryX=0.75;entryY=1;entryDx=0;entryDy=0;" edge="1" parent="WIyWlLk6GJQsqaUBKTNV-1" source="K89lKKA3gyO2oekOYoo0-17" target="K89lKKA3gyO2oekOYoo0-13">
          <mxGeometry relative="1" as="geometry">
            <mxPoint x="424" y="600" as="sourcePoint" />
            <mxPoint x="424" y="640" as="targetPoint" />
          </mxGeometry>
        </mxCell>
        <mxCell id="K89lKKA3gyO2oekOYoo0-23" value="¿Cantidad suficiente?" style="rhombus;whiteSpace=wrap;html=1;shadow=0;fontFamily=Helvetica;fontSize=12;align=center;strokeWidth=1;spacing=6;spacingTop=-4;fillColor=#647687;strokeColor=#314354;fontColor=#ffffff;" vertex="1" parent="WIyWlLk6GJQsqaUBKTNV-1">
          <mxGeometry x="450" y="560" width="100" height="80" as="geometry" />
        </mxCell>
        <mxCell id="K89lKKA3gyO2oekOYoo0-25" value="No" style="rounded=0;html=1;jettySize=auto;orthogonalLoop=1;fontSize=11;endArrow=block;endFill=0;endSize=8;strokeWidth=1;shadow=0;labelBackgroundColor=none;edgeStyle=orthogonalEdgeStyle;exitX=0.5;exitY=1;exitDx=0;exitDy=0;entryX=0.5;entryY=0;entryDx=0;entryDy=0;" edge="1" parent="WIyWlLk6GJQsqaUBKTNV-1" source="K89lKKA3gyO2oekOYoo0-17" target="K89lKKA3gyO2oekOYoo0-23">
          <mxGeometry relative="1" as="geometry">
            <mxPoint x="424" y="600" as="sourcePoint" />
            <mxPoint x="424" y="640" as="targetPoint" />
          </mxGeometry>
        </mxCell>
        <mxCell id="K89lKKA3gyO2oekOYoo0-26" value="No" style="rounded=0;html=1;jettySize=auto;orthogonalLoop=1;fontSize=11;endArrow=block;endFill=0;endSize=8;strokeWidth=1;shadow=0;labelBackgroundColor=none;edgeStyle=orthogonalEdgeStyle;exitX=1;exitY=0.5;exitDx=0;exitDy=0;entryX=1;entryY=0.25;entryDx=0;entryDy=0;" edge="1" parent="WIyWlLk6GJQsqaUBKTNV-1" source="K89lKKA3gyO2oekOYoo0-23" target="K89lKKA3gyO2oekOYoo0-4">
          <mxGeometry relative="1" as="geometry">
            <mxPoint x="440" y="795" as="sourcePoint" />
            <mxPoint x="450" y="375" as="targetPoint" />
            <Array as="points">
              <mxPoint x="570" y="600" />
              <mxPoint x="570" y="230" />
            </Array>
          </mxGeometry>
        </mxCell>
        <mxCell id="K89lKKA3gyO2oekOYoo0-27" value="Si" style="rounded=0;html=1;jettySize=auto;orthogonalLoop=1;fontSize=11;endArrow=block;endFill=0;endSize=8;strokeWidth=1;shadow=0;labelBackgroundColor=none;edgeStyle=orthogonalEdgeStyle;exitX=0.5;exitY=1;exitDx=0;exitDy=0;entryX=0.5;entryY=0;entryDx=0;entryDy=0;" edge="1" parent="WIyWlLk6GJQsqaUBKTNV-1" source="K89lKKA3gyO2oekOYoo0-23" target="K89lKKA3gyO2oekOYoo0-2">
          <mxGeometry relative="1" as="geometry">
            <mxPoint x="424" y="720" as="sourcePoint" />
            <mxPoint x="424" y="780" as="targetPoint" />
          </mxGeometry>
        </mxCell>
      </root>
    </mxGraphModel>
  </diagram>
</mxfile>
